<svg width="128" height="24" viewBox="0 0 128 24" fill="none" xmlns="http://www.w3.org/2000/svg">
<path d="M127.948 11.671V7.07024C127.148 7.10624 124.748 7.47344 123.686 8.90623V7.38704H119.206V22.7158H123.686V15.4726C124.326 12.0598 127.225 11.6998 127.961 11.671H127.948ZM87.8203 11.851C87.3396 11.3673 86.7901 10.9779 86.1947 10.699C85.7044 10.4302 85.1657 10.2922 84.6203 10.2958C84.2163 10.2913 83.8164 10.3872 83.4491 10.5766C83.2818 10.653 83.1399 10.7865 83.0435 10.9582C82.9471 11.13 82.9009 11.3314 82.9115 11.5342C82.9071 11.7399 82.9621 11.9416 83.0683 12.1091C83.1744 12.2765 83.326 12.4007 83.5003 12.463C84.1256 12.7234 84.7674 12.9304 85.4203 13.0822C85.9521 13.2119 86.4742 13.3876 86.9819 13.6078C87.4925 13.8269 87.9714 14.1302 88.4027 14.5078C88.8236 14.8803 89.1721 15.3458 89.4267 15.8758C89.6948 16.4681 89.8268 17.1265 89.8107 17.791C89.8387 18.6024 89.676 19.4078 89.3389 20.1259C89.0018 20.8439 88.5022 21.4492 87.8907 21.8806C87.3041 22.3083 86.6537 22.6132 85.9707 22.7806C85.2831 22.9662 84.5786 23.0604 83.8715 23.0614C82.751 23.0615 81.6379 22.8572 80.5755 22.4566C79.5668 22.1036 78.6445 21.4924 77.8811 20.671L80.0955 17.5534C80.6352 18.108 81.2485 18.5647 81.9131 18.907C82.4948 19.2361 83.1372 19.4063 83.7883 19.4038C84.1682 19.3994 84.5423 19.2985 84.8827 19.1086C85.0557 19.0181 85.1999 18.8703 85.296 18.685C85.3921 18.4997 85.4355 18.2857 85.4203 18.0718C85.4226 17.8438 85.3624 17.6206 85.2479 17.4324C85.1334 17.2443 84.9701 17.1005 84.7803 17.0206C84.1128 16.7082 83.4207 16.4671 82.7131 16.3006C82.2238 16.1714 81.7427 16.0054 81.2731 15.8038C80.8105 15.6017 80.3787 15.32 79.9931 14.9686C79.6248 14.615 79.3205 14.1847 79.0971 13.7014C78.8473 13.1234 78.7244 12.4864 78.7387 11.8438C78.7178 11.0128 78.8992 10.1912 79.2635 9.46783C79.6064 8.81684 80.077 8.26271 80.6395 7.84783C81.1983 7.42667 81.8175 7.11732 82.4699 6.93344C83.126 6.74021 83.8013 6.64102 84.4795 6.63824C85.5055 6.63706 86.5251 6.81933 87.5003 7.17824C88.4312 7.50548 89.2859 8.06126 90.0027 8.80543L87.8203 11.851ZM114.041 13.0606C114.036 12.355 113.809 11.6742 113.401 11.1382C113.138 10.8352 112.818 10.6014 112.465 10.4533C112.112 10.3051 111.735 10.2465 111.359 10.2814C110.951 10.2776 110.546 10.3556 110.163 10.5118C109.814 10.6551 109.491 10.8672 109.209 11.1382C108.946 11.4029 108.729 11.7203 108.569 12.0742C108.427 12.3814 108.338 12.7161 108.307 13.0606H114.041ZM118.169 15.1414V15.7534C118.179 15.9476 118.179 16.1424 118.169 16.3366H108.287C108.316 16.748 108.432 17.1456 108.627 17.4958C108.819 17.8473 109.069 18.155 109.363 18.403C109.669 18.6611 110.011 18.8628 110.374 19.0006C110.747 19.1445 111.138 19.2175 111.532 19.2166C112.157 19.237 112.777 19.0837 113.337 18.7702C113.808 18.4928 114.217 18.099 114.534 17.6182L117.651 19.8286C117.001 20.8706 116.118 21.7004 115.091 22.2334C113.957 22.8075 112.724 23.0903 111.481 23.0614C110.494 23.0678 109.514 22.8852 108.582 22.5214C107.702 22.1842 106.89 21.6531 106.195 20.959C105.503 20.2568 104.955 19.3946 104.588 18.4318C104.179 17.3489 103.979 16.1809 103.999 15.0046C103.986 13.8428 104.18 12.6897 104.569 11.6134C104.928 10.6472 105.457 9.77278 106.124 9.04303C106.795 8.32973 107.585 7.77195 108.447 7.40144C109.377 7.0033 110.365 6.80546 111.359 6.81824C112.303 6.80827 113.239 7.00134 114.118 7.38704C114.935 7.74969 115.671 8.31013 116.275 9.02863C116.895 9.77964 117.373 10.6637 117.683 11.6278C118.033 12.7517 118.204 13.9362 118.188 15.127L118.169 15.1414ZM64.198 11.5414V6.91184H60.358V3.47745C60.262 1.49746 59.43 0.0214699 56.0316 0.0214699V17.8558C56.0285 18.5704 56.1103 19.2823 56.2748 19.9726C56.4199 20.579 56.6821 21.142 57.0428 21.6214C57.429 22.0989 57.9152 22.4602 58.4572 22.6726C59.2142 22.9435 60.0053 23.0748 60.7996 23.0614C61.9567 23.0773 63.1073 22.8628 64.198 22.4278V18.3238C63.47 18.5337 62.7223 18.6449 61.9708 18.655C61.7368 18.6876 61.4993 18.6583 61.2771 18.5696C61.0549 18.4808 60.8542 18.3351 60.6908 18.1438C60.4349 17.6763 60.3203 17.1282 60.3644 16.5814V11.5414H64.198Z" fill="#008FB4"/>
<path d="M100.134 14.5367L105.19 7.33677H99.8395L95.3596 13.7015V3.62158C95.2764 1.54799 94.4764 0.0215999 91.0268 0.0215999V22.7159H95.3596V15.3863L100.48 22.7159H105.888L100.134 14.5367ZM77.1196 22.7015V12.5495C77.1196 8.17916 74.0349 6.60957 71.3021 6.60957C69.1503 6.48877 67.0335 7.25697 65.3501 8.76956L67.6093 11.9231C68.519 11.0243 69.6558 10.4679 70.8605 10.332C72.5053 10.332 72.8445 11.3903 72.8445 12.7439V13.0031H71.3661C67.5645 13.0031 65.2797 14.8535 65.2797 18.1511C65.2797 21.7511 68.0957 22.6871 71.5261 22.6871L77.1196 22.7015ZM72.8445 19.5119H71.4237C70.3165 19.5119 69.6381 18.9935 69.6381 17.9207C69.6381 16.8479 70.3165 16.2287 71.6733 16.2287H72.8445V19.5119ZM40.2494 2.80799C40.2494 3.55271 40.5124 4.26693 40.9805 4.79353C41.4486 5.32013 42.0834 5.61598 42.7454 5.61598C43.4074 5.61598 44.0422 5.32013 44.5103 4.79353C44.9784 4.26693 45.2414 3.55271 45.2414 2.80799C45.2414 2.06326 44.9784 1.34904 44.5103 0.82244C44.0422 0.295841 43.4074 0 42.7454 0C42.0834 0 41.4486 0.295841 40.9805 0.82244C40.5124 1.34904 40.2494 2.06326 40.2494 2.80799ZM40.6718 6.94797H40.4862V22.7159H44.9982V10.2672C44.8702 8.35196 43.9998 6.94797 40.6718 6.94797ZM55.0397 11.6711V7.07037C54.2462 7.10637 51.8398 7.47357 50.7774 8.90636V7.38717H46.2974V22.7159H50.7774V15.5951C50.7743 15.5544 50.7743 15.5135 50.7774 15.4727C51.4174 12.0599 54.3102 11.6999 55.0525 11.6711H55.0397ZM126.649 20.4047H126.399V20.9375H126.649C126.681 20.9395 126.713 20.934 126.744 20.9215C126.774 20.909 126.801 20.8897 126.825 20.8648C126.848 20.8398 126.867 20.8098 126.879 20.7765C126.892 20.7432 126.899 20.7073 126.899 20.6711C126.899 20.6349 126.892 20.599 126.879 20.5657C126.867 20.5324 126.848 20.5024 126.825 20.4775C126.801 20.4525 126.774 20.4332 126.744 20.4207C126.713 20.4082 126.681 20.4028 126.649 20.4047ZM126.899 21.8807L126.591 21.1607H126.399V21.8807H126.118V20.1311H126.719C126.783 20.1292 126.847 20.1417 126.906 20.1681C126.965 20.1945 127.019 20.234 127.065 20.2845C127.11 20.3349 127.146 20.3952 127.17 20.4616C127.195 20.528 127.207 20.5993 127.206 20.6711C127.207 20.7759 127.178 20.8783 127.124 20.9636C127.07 21.049 126.993 21.1129 126.905 21.1463L127.244 21.8663L126.899 21.8807ZM126.604 19.7207C126.37 19.7078 126.139 19.7739 125.939 19.9106C125.739 20.0473 125.58 20.2482 125.482 20.4876C125.384 20.7269 125.353 20.9936 125.391 21.2533C125.43 21.513 125.537 21.7538 125.698 21.9446C125.859 22.1354 126.067 22.2675 126.296 22.3238C126.525 22.3801 126.763 22.3581 126.98 22.2606C127.198 22.163 127.384 21.9945 127.516 21.7766C127.647 21.5587 127.718 21.3016 127.718 21.0383C127.722 20.8694 127.697 20.7012 127.643 20.5434C127.589 20.3856 127.508 20.2414 127.405 20.1189C127.301 19.9964 127.177 19.8982 127.04 19.8299C126.902 19.7615 126.754 19.7244 126.604 19.7207ZM126.604 22.6583C126.319 22.6682 126.037 22.5825 125.795 22.4119C125.553 22.2413 125.362 21.9936 125.245 21.7004C125.129 21.4071 125.092 21.0814 125.14 20.7648C125.189 20.4481 125.32 20.1548 125.517 19.9221C125.714 19.6894 125.968 19.5278 126.246 19.4579C126.525 19.388 126.816 19.4129 127.082 19.5295C127.348 19.646 127.578 19.849 127.741 20.1125C127.904 20.3761 127.994 20.6883 127.999 21.0095C128.005 21.4322 127.861 21.84 127.599 22.1436C127.338 22.4472 126.98 22.6219 126.604 22.6295V22.6583ZM27.8911 13.8239L29.8943 7.34397L31.8975 13.8239H27.8911ZM31.9999 0.0215999H27.9743L21.7599 18.4967H19.3151C17.6484 18.5761 15.9968 18.111 14.5599 17.1575C13.9872 16.7441 13.5225 16.1669 13.2132 15.485C12.904 14.8031 12.7614 14.041 12.7999 13.2767V11.1168H10.816C8.97051 11.0598 7.20327 10.2661 5.83037 8.87756C4.75778 7.61194 4.08337 5.98578 3.91038 4.24798H17.8175C20.3455 4.24798 21.2799 5.63757 21.8623 6.88317C22.1484 7.50791 22.3635 8.17073 22.5023 8.85596L24.2623 3.62158C24.2623 3.62158 22.7903 0.0215999 17.8175 0.0215999H0V2.18159C0 6.25677 1.0752 9.52556 3.19999 11.8727C4.8679 13.6484 6.97794 14.809 9.24796 15.1991C10.048 19.8215 13.8239 22.7015 19.3151 22.7015H25.0239L26.3039 18.5399H33.4526L34.7326 22.6943H39.6158L31.9999 0.0215999Z" fill="#008FB4"/>
</svg>
