<svg width="88" height="26" viewBox="0 0 88 26" fill="none" xmlns="http://www.w3.org/2000/svg">
<path d="M0.000532494 23.2822L1.56106 19.8342C3.26971 21.0304 5.49835 21.6635 7.72753 21.6635C9.36212 21.6635 10.4021 21.0656 10.4021 20.151C10.3648 17.6177 0.557826 19.5879 0.483236 13.2188C0.445941 9.98183 3.49241 7.48373 7.80212 7.48373C10.3648 7.48373 12.9286 8.08206 14.7486 9.45451L13.2904 12.976C11.6158 11.9582 9.54753 11.2485 7.57888 11.2485C6.24159 11.2485 5.34971 11.8463 5.34971 12.621C5.387 15.1191 15.2691 13.7466 15.3805 19.8342C15.3805 23.1417 12.4081 25.464 8.17294 25.464C5.05294 25.464 2.19242 24.7604 0 23.2822H0.000532494ZM62.1383 18.5857C61.7444 19.2473 61.1714 19.798 60.4781 20.1812C59.7848 20.5644 58.9962 20.7664 58.193 20.7665C55.69 20.7665 53.6612 18.8446 53.6612 16.4739C53.6612 14.1032 55.69 12.1813 58.193 12.1813C58.9962 12.1813 59.7848 12.3833 60.4781 12.7666C61.1714 13.1498 61.7444 13.7005 62.1383 14.3621L66.4768 12.0856C64.8518 9.34018 61.7521 7.48373 58.193 7.48373C52.951 7.48373 48.7015 11.5084 48.7015 16.4739C48.7015 21.4389 52.951 25.464 58.193 25.464C61.7521 25.464 64.8518 23.6076 66.4768 20.8622L62.1383 18.5857ZM18.1957 25.112H23.6195V0H18.1962L18.1957 25.112ZM69.2159 0V25.112H74.6396V17.5885L81.0666 25.112H87.9992L79.8263 16.1742L87.4047 7.83427H80.7693L74.6396 14.768V0H69.2159ZM40.3293 7.83528V9.87657C39.4379 8.46887 37.246 7.48373 34.9428 7.48373C30.1877 7.48373 26.4358 11.46 26.4358 16.4562C26.4358 21.4524 30.1877 25.464 34.9428 25.464C37.246 25.464 39.4379 24.4789 40.3293 23.0712V25.112H45.753V7.83528H40.3293ZM40.3293 18.6204C39.5493 19.8519 37.9147 20.766 36.0947 20.766C33.5911 20.766 31.5623 18.8446 31.5623 16.4739C31.5623 14.1032 33.5911 12.1813 36.0947 12.1813C37.9147 12.1813 39.5493 13.1312 40.3293 14.3973V18.6204Z" fill="white"/>
</svg>
