<svg width="15" height="14" viewBox="0 0 15 14" fill="none" xmlns="http://www.w3.org/2000/svg">
<path d="M1.59803e-06 2.99989C-0.000416398 3.39345 0.0811709 3.78323 0.240105 4.14698C0.399039 4.51073 0.632208 4.84132 0.926298 5.11989C1.22039 5.39846 1.56964 5.61954 1.95411 5.77051C2.33859 5.92148 2.75075 5.99939 3.16708 5.99978C4.00793 5.99899 4.81402 5.6825 5.40804 5.11992C6.00207 4.55735 6.33539 3.79476 6.33468 2.99989V0H3.16708C1.41784 0 1.59803e-06 1.34331 1.59803e-06 2.99989ZM8.44607 2.99989V10.9996C8.44607 12.6567 9.86391 14 11.6131 14C12.454 13.9992 13.2601 13.6827 13.8541 13.1201C14.4481 12.5576 14.7815 11.795 14.7808 11.0001V2.99989C14.7812 2.60629 14.6996 2.21647 14.5406 1.85269C14.3816 1.48891 14.1484 1.15829 13.8543 0.879716C13.5601 0.601144 13.2108 0.380075 12.8263 0.229132C12.4417 0.0781888 12.0295 0.000328953 11.6131 0C9.86391 0 8.44607 1.34331 8.44607 2.99989Z" fill="#E01E5A"/>
</svg>
