<svg width="15" height="14" viewBox="0 0 15 14" fill="none" xmlns="http://www.w3.org/2000/svg">
<path d="M11.6131 0C9.86391 0 8.44607 1.34331 8.44607 2.99989C8.44565 3.39345 8.52724 3.78323 8.68617 4.14698C8.84511 4.51073 9.07827 4.84132 9.37236 5.11989C9.66645 5.39846 10.0157 5.61954 10.4002 5.77051C10.7847 5.92148 11.1968 5.99939 11.6131 5.99978H14.7807V2.99989C14.7815 2.20502 14.4481 1.44244 13.8541 0.879863C13.2601 0.317288 12.454 0.00079725 11.6131 0ZM11.6131 7.99971H3.16708C1.41784 7.99971 0 9.34302 0 11.0001C0 12.6567 1.41784 14 3.16708 14H11.6137C13.3624 14 14.7807 12.6567 14.7807 11.0001C14.7807 9.34302 13.3624 7.99971 11.6131 7.99971Z" fill="#36C5F0"/>
</svg>
