<svg width="15" height="14" viewBox="0 0 15 14" fill="none" xmlns="http://www.w3.org/2000/svg">
<path d="M14.7797 10.9993C14.7797 9.34237 13.3614 7.99915 11.6123 7.99915C9.86322 7.99915 8.44548 9.34237 8.44548 10.9993V13.999H11.6123C12.4531 13.9982 13.2592 13.6818 13.8531 13.1192C14.4471 12.5567 14.7804 11.7941 14.7797 10.9993ZM6.33424 10.9993V2.99968C6.33495 2.20487 6.00165 1.44234 5.40767 0.879801C4.81368 0.317266 4.00765 0.000797194 3.16686 0C1.41774 0 0 1.34322 0 2.99968V10.9988C0 12.6563 1.41774 13.9995 3.16686 13.9995C4.00765 13.9987 4.81368 13.6823 5.40767 13.1197C6.00165 12.5572 6.33495 11.7947 6.33424 10.9998" fill="#2EB67D"/>
</svg>
