<svg width="15" height="14" viewBox="0 0 15 14" fill="none" xmlns="http://www.w3.org/2000/svg">
<path d="M3.16708 14C4.00793 13.9992 4.81402 13.6827 5.40804 13.1201C6.00207 12.5576 6.33539 11.795 6.33468 11.0001C6.33539 10.2052 6.00207 9.44265 5.40804 8.88008C4.81402 8.3175 4.00793 8.00101 3.16708 8.00021H1.59801e-06V11.0001C1.59801e-06 12.6567 1.41784 14 3.16708 14ZM3.16708 6.00029H11.6137C13.3624 6.00029 14.7808 4.65698 14.7808 2.99989C14.7815 2.20502 14.4481 1.44244 13.8541 0.879863C13.2601 0.317289 12.454 0.00079725 11.6131 0H3.16708C1.41784 0 1.59801e-06 1.34331 1.59801e-06 2.99989C-0.000416398 3.39345 0.0811719 3.78323 0.240106 4.14698C0.399041 4.51073 0.632208 4.84132 0.926299 5.11989C1.22039 5.39846 1.56964 5.61954 1.95411 5.77051C2.33859 5.92148 2.75075 5.99939 3.16708 5.99978" fill="#ECB22E"/>
</svg>
